<?xml version="1.0" encoding="UTF-8"?>
<!DOCTYPE svg PUBLIC "-//W3C//DTD SVG 1.1//EN" "http://www.w3.org/Graphics/SVG/1.1/DTD/svg11.dtd">
<svg xmlns="http://www.w3.org/2000/svg" version="1.1" width="40px" height="40px" style="shape-rendering:geometricPrecision; text-rendering:geometricPrecision; image-rendering:optimizeQuality; fill-rule:evenodd; clip-rule:evenodd" xmlns:xlink="http://www.w3.org/1999/xlink">
<g><path style="opacity:1" fill="#eef9fe" d="M -0.5,-0.5 C 166.167,-0.5 332.833,-0.5 499.5,-0.5C 499.5,166.167 499.5,332.833 499.5,499.5C 332.833,499.5 166.167,499.5 -0.5,499.5C -0.5,332.833 -0.5,166.167 -0.5,-0.5 Z"/></g>
<g><path style="opacity:1" fill="#296870" d="M 300.5,107.5 C 289.032,108.323 280.199,113.657 274,123.5C 262.519,143.28 254.186,164.28 249,186.5C 244.484,164.95 236.818,144.617 226,125.5C 219.495,114.467 209.995,108.133 197.5,106.5C 207.46,89.2389 221.127,85.7389 238.5,96C 243.204,100.367 246.704,105.534 249,111.5C 257.554,91.3005 271.72,85.8005 291.5,95C 295.868,98.2555 298.868,102.422 300.5,107.5 Z"/></g>
<g><path style="opacity:1" fill="#0a7f8a" d="M 197.5,106.5 C 209.995,108.133 219.495,114.467 226,125.5C 236.818,144.617 244.484,164.95 249,186.5C 254.186,164.28 262.519,143.28 274,123.5C 280.199,113.657 289.032,108.323 300.5,107.5C 300.833,107.5 301.167,107.5 301.5,107.5C 304.904,119.817 302.738,131.15 295,141.5C 282.02,159.646 266.52,175.313 248.5,188.5C 230.775,174.609 215.275,158.609 202,140.5C 196.162,131.996 193.829,122.663 195,112.5C 195.608,110.846 196.108,109.179 196.5,107.5C 196.5,106.833 196.833,106.5 197.5,106.5 Z"/></g>
<g><path style="opacity:1" fill="#31ced6" d="M 196.5,107.5 C 196.108,109.179 195.608,110.846 195,112.5C 193.829,122.663 196.162,131.996 202,140.5C 215.275,158.609 230.775,174.609 248.5,188.5C 266.52,175.313 282.02,159.646 295,141.5C 302.738,131.15 304.904,119.817 301.5,107.5C 321.394,108.936 330.227,119.603 328,139.5C 326.597,145.475 323.763,150.642 319.5,155C 340.638,155.14 351.471,165.64 352,186.5C 347.426,203.415 336.426,211.415 319,210.5C 308.195,210.473 297.695,208.639 287.5,205C 274.627,200.321 261.96,195.154 249.5,189.5C 230.71,198.819 211.043,205.652 190.5,210C 182.833,210.667 175.167,210.667 167.5,210C 147.423,200.768 142.256,186.268 152,166.5C 159.404,158.584 168.57,154.751 179.5,155C 171.427,146.77 168.593,136.937 171,125.5C 175.612,113.948 184.112,107.948 196.5,107.5 Z"/></g>
<g><path style="opacity:1" fill="#157c88" d="M 18.5,265.5 C 172.5,265.5 326.5,265.5 480.5,265.5C 480.5,266.833 480.5,268.167 480.5,269.5C 326.5,269.5 172.5,269.5 18.5,269.5C 18.5,268.167 18.5,266.833 18.5,265.5 Z"/></g>
<g><path style="opacity:1" fill="#1d7e8a" d="M 213.5,309.5 C 216.607,309.351 219.607,309.851 222.5,311C 224.155,312.444 224.822,314.278 224.5,316.5C 221.844,315.842 219.178,315.175 216.5,314.5C 214.681,314.342 213.348,315.009 212.5,316.5C 216.742,318.613 220.908,320.947 225,323.5C 226.088,330.413 223.088,333.413 216,332.5C 211.913,333.19 208.746,331.857 206.5,328.5C 206.709,327.914 207.043,327.414 207.5,327C 210.163,327.143 212.829,327.643 215.5,328.5C 217.481,328.563 219.148,327.896 220.5,326.5C 216.258,324.387 212.092,322.053 208,319.5C 206.984,314.528 208.817,311.194 213.5,309.5 Z"/></g>
<g><path style="opacity:1" fill="#1b7d89" d="M 236.5,309.5 C 249.236,309.396 253.736,315.396 250,327.5C 249.167,329.667 247.667,331.167 245.5,332C 232.358,333.86 227.191,328.36 230,315.5C 231.914,313.144 234.081,311.144 236.5,309.5 Z"/></g>
<g><path style="opacity:1" fill="#107985" d="M 256.5,310.5 C 258.167,310.5 259.833,310.5 261.5,310.5C 261.334,315.844 261.501,321.177 262,326.5C 265.012,329.25 267.679,328.917 270,325.5C 270.333,320.833 270.667,316.167 271,311.5C 272.699,310.594 274.533,310.261 276.5,310.5C 276.666,317.508 276.5,324.508 276,331.5C 274.644,332.38 273.144,332.714 271.5,332.5C 271.649,331.448 271.483,330.448 271,329.5C 266.855,332.979 262.522,333.312 258,330.5C 256.58,323.95 256.08,317.284 256.5,310.5 Z"/></g>
<g><path style="opacity:1" fill="#0f7984" d="M 282.5,310.5 C 284.167,310.5 285.833,310.5 287.5,310.5C 287.351,311.552 287.517,312.552 288,313.5C 290.96,310.029 294.126,309.696 297.5,312.5C 294.854,314.018 292.021,315.351 289,316.5C 287.603,321.708 287.103,327.041 287.5,332.5C 285.833,332.5 284.167,332.5 282.5,332.5C 282.5,325.167 282.5,317.833 282.5,310.5 Z"/></g>
<g><path style="opacity:1" fill="#1a7d89" d="M 306.5,309.5 C 309.607,309.351 312.607,309.851 315.5,311C 317.155,312.444 317.822,314.278 317.5,316.5C 314.302,315.066 310.968,314.566 307.5,315C 303.577,319.261 303.577,323.594 307.5,328C 310.968,328.434 314.302,327.934 317.5,326.5C 318.035,329.238 317.035,331.072 314.5,332C 302.075,334.242 296.909,329.075 299,316.5C 300.742,313.254 303.242,310.921 306.5,309.5 Z"/></g>
<g><path style="opacity:1" fill="#1a7d88" d="M 328.5,309.5 C 337.264,309.425 341.264,313.591 340.5,322C 335.845,322.499 331.179,322.666 326.5,322.5C 326.329,324.993 327.329,326.826 329.5,328C 333.246,328.256 336.913,327.756 340.5,326.5C 341.21,329.86 339.876,331.693 336.5,332C 324.075,334.242 318.909,329.075 321,316.5C 322.742,313.254 325.242,310.921 328.5,309.5 Z"/></g>
<g><path style="opacity:1" fill="#1f7f8a" d="M 350.5,309.5 C 354.694,309.177 358.527,310.177 362,312.5C 362.783,314.319 362.283,315.652 360.5,316.5C 357.711,314.702 354.711,314.202 351.5,315C 350.075,316.714 350.408,318.047 352.5,319C 356.558,319.378 360.058,320.878 363,323.5C 363.262,330.231 359.929,333.231 353,332.5C 350.37,332.536 347.87,332.036 345.5,331C 344.62,329.644 344.286,328.144 344.5,326.5C 348.339,328.167 352.339,328.667 356.5,328C 357.337,326.989 357.67,325.822 357.5,324.5C 353.315,324.162 349.481,322.829 346,320.5C 344.393,315.438 345.893,311.772 350.5,309.5 Z"/></g>
<g><path style="opacity:1" fill="#e6f5fa" d="M 237.5,314.5 C 240.365,314.055 242.865,314.722 245,316.5C 245.667,319.5 245.667,322.5 245,325.5C 241.206,329.741 237.873,329.408 235,324.5C 233.861,320.579 234.695,317.246 237.5,314.5 Z"/></g>
<g><path style="opacity:1" fill="#def0f5" d="M 329.5,313.5 C 333.693,313.362 336.027,315.362 336.5,319.5C 333.167,319.5 329.833,319.5 326.5,319.5C 326.615,317.053 327.615,315.053 329.5,313.5 Z"/></g>
<g><path style="opacity:1" fill="#127985" d="M 95.5,326.5 C 104.173,326.334 112.84,326.5 121.5,327C 136.521,330.546 140.688,339.38 134,353.5C 131.222,356.807 127.722,358.974 123.5,360C 126.616,361.449 129.116,363.616 131,366.5C 133.084,370.336 135.417,374.003 138,377.5C 138.486,382.992 135.986,384.825 130.5,383C 125.5,376 120.5,369 115.5,362C 111.27,360.71 106.936,360.21 102.5,360.5C 102.666,367.508 102.5,374.508 102,381.5C 99,384.167 96,384.167 93,381.5C 92.3333,364.167 92.3333,346.833 93,329.5C 93.6979,328.309 94.5313,327.309 95.5,326.5 Z"/></g>
<g><path style="opacity:1" fill="#147a86" d="M 151.5,326.5 C 162.172,326.333 172.839,326.5 183.5,327C 187.065,329.178 187.399,331.844 184.5,335C 175.84,335.5 167.173,335.666 158.5,335.5C 158.5,340.5 158.5,345.5 158.5,350.5C 166.507,350.334 174.507,350.5 182.5,351C 186.037,352.826 186.371,355.16 183.5,358C 175.173,358.5 166.84,358.666 158.5,358.5C 158.5,364.167 158.5,369.833 158.5,375.5C 167.173,375.334 175.84,375.5 184.5,376C 187.167,378.333 187.167,380.667 184.5,383C 173.167,383.667 161.833,383.667 150.5,383C 150,382.5 149.5,382 149,381.5C 148.333,363.833 148.333,346.167 149,328.5C 149.995,327.934 150.828,327.267 151.5,326.5 Z"/></g>
<g><path style="opacity:1" fill="#ecf8fd" d="M 102.5,335.5 C 108.842,335.334 115.175,335.5 121.5,336C 127.742,338.864 129.075,343.364 125.5,349.5C 124.335,350.584 123.002,351.417 121.5,352C 115.175,352.5 108.842,352.666 102.5,352.5C 102.5,346.833 102.5,341.167 102.5,335.5 Z"/></g>
<g><path style="opacity:1" fill="#067682" d="M 209.5,362.5 C 210.822,362.33 211.989,362.663 213,363.5C 213.5,373.828 213.666,384.161 213.5,394.5C 211.833,394.5 210.167,394.5 208.5,394.5C 208.191,383.752 208.524,373.085 209.5,362.5 Z"/></g>
<g><path style="opacity:1" fill="#117985" d="M 260.5,362.5 C 262.5,362.5 264.5,362.5 266.5,362.5C 266.985,367.159 265.152,368.492 261,366.5C 260.51,365.207 260.343,363.873 260.5,362.5 Z"/></g>
<g><path style="opacity:1" fill="#067682" d="M 376.5,362.5 C 377.822,362.33 378.989,362.663 380,363.5C 380.5,373.828 380.666,384.161 380.5,394.5C 378.833,394.5 377.167,394.5 375.5,394.5C 375.191,383.752 375.524,373.085 376.5,362.5 Z"/></g>
<g><path style="opacity:1" fill="#157d88" d="M 387.5,362.5 C 389.144,362.286 390.644,362.62 392,363.5C 392.667,373.5 392.667,383.5 392,393.5C 390.333,394.833 388.667,394.833 387,393.5C 386.192,383.09 386.359,372.757 387.5,362.5 Z"/></g>
<g><path style="opacity:1" fill="#187d88" d="M 246.5,365.5 C 248.144,365.286 249.644,365.62 251,366.5C 251.495,368.473 251.662,370.473 251.5,372.5C 253.5,372.5 255.5,372.5 257.5,372.5C 257.5,373.833 257.5,375.167 257.5,376.5C 255.5,376.5 253.5,376.5 251.5,376.5C 251.334,380.846 251.501,385.179 252,389.5C 253.699,390.406 255.533,390.739 257.5,390.5C 257.5,391.833 257.5,393.167 257.5,394.5C 253.397,395.231 249.897,394.231 247,391.5C 245.612,386.628 245.112,381.628 245.5,376.5C 243.335,376.884 241.668,376.217 240.5,374.5C 241.668,372.783 243.335,372.116 245.5,372.5C 245.298,370.05 245.631,367.717 246.5,365.5 Z"/></g>
<g><path style="opacity:1" fill="#1c7e8a" d="M 225.5,371.5 C 230.74,370.538 234.907,372.205 238,376.5C 238.667,382.167 238.667,387.833 238,393.5C 236.644,394.38 235.144,394.714 233.5,394.5C 233.557,390.867 232.557,390.7 230.5,394C 222.83,395.972 218.997,393.139 219,385.5C 222.735,381.904 227.235,380.571 232.5,381.5C 232.714,379.856 232.38,378.356 231.5,377C 227.958,376.149 224.625,376.649 221.5,378.5C 219.717,377.652 219.217,376.319 220,374.5C 221.876,373.391 223.709,372.391 225.5,371.5 Z"/></g>
<g><path style="opacity:1" fill="#177d89" d="M 262.5,371.5 C 264.017,371.511 265.184,372.177 266,373.5C 266.667,380.167 266.667,386.833 266,393.5C 264.333,394.833 262.667,394.833 261,393.5C 260.333,386.833 260.333,380.167 261,373.5C 261.717,372.956 262.217,372.289 262.5,371.5 Z"/></g>
<g><path style="opacity:1" fill="#1b7d89" d="M 278.5,371.5 C 291.236,371.396 295.736,377.396 292,389.5C 291.167,391.667 289.667,393.167 287.5,394C 274.358,395.86 269.191,390.36 272,377.5C 273.914,375.144 276.081,373.144 278.5,371.5 Z"/></g>
<g><path style="opacity:1" fill="#0f7985" d="M 308.5,371.5 C 312.426,371.047 315.592,372.38 318,375.5C 318.5,381.825 318.666,388.158 318.5,394.5C 316.856,394.714 315.356,394.38 314,393.5C 313.667,388.5 313.333,383.5 313,378.5C 309.706,375.689 306.706,376.022 304,379.5C 303.501,384.489 303.334,389.489 303.5,394.5C 301.833,394.5 300.167,394.5 298.5,394.5C 298.5,387.167 298.5,379.833 298.5,372.5C 300.821,372.229 302.821,372.896 304.5,374.5C 305.901,373.479 307.235,372.479 308.5,371.5 Z"/></g>
<g><path style="opacity:1" fill="#1a7e89" d="M 326.5,371.5 C 328.371,371.859 329.871,372.859 331,374.5C 335.333,370.5 339.667,370.5 344,374.5C 345.773,380.971 345.94,387.471 344.5,394C 342.888,394.72 341.388,394.554 340,393.5C 339.667,388.167 339.333,382.833 339,377.5C 335.606,375.725 332.94,376.392 331,379.5C 330.667,384.167 330.333,388.833 330,393.5C 328.333,394.833 326.667,394.833 325,393.5C 324.333,386.833 324.333,380.167 325,373.5C 325.717,372.956 326.217,372.289 326.5,371.5 Z"/></g>
<g><path style="opacity:1" fill="#177c87" d="M 357.5,371.5 C 366.884,370.884 371.217,375.217 370.5,384.5C 365.489,384.334 360.489,384.501 355.5,385C 356.13,386.892 357.13,388.559 358.5,390C 361.853,390.747 365.02,390.247 368,388.5C 369.28,388.613 370.113,389.28 370.5,390.5C 369.636,392.197 368.303,393.363 366.5,394C 353.498,395.996 348.331,390.496 351,377.5C 352.914,375.144 355.081,373.144 357.5,371.5 Z"/></g>
<g><path style="opacity:1" fill="#177c87" d="M 404.5,371.5 C 413.884,370.884 418.217,375.217 417.5,384.5C 412.489,384.334 407.489,384.501 402.5,385C 403.13,386.892 404.13,388.559 405.5,390C 408.853,390.747 412.02,390.247 415,388.5C 416.28,388.613 417.113,389.28 417.5,390.5C 416.636,392.197 415.303,393.363 413.5,394C 400.498,395.996 395.331,390.496 398,377.5C 399.914,375.144 402.081,373.144 404.5,371.5 Z"/></g>
<g><path style="opacity:1" fill="#1d7e8a" d="M 427.5,371.5 C 430.607,371.351 433.607,371.851 436.5,373C 438.155,374.444 438.822,376.278 438.5,378.5C 435.844,377.842 433.178,377.175 430.5,376.5C 428.681,376.342 427.348,377.009 426.5,378.5C 430.742,380.613 434.908,382.947 439,385.5C 440.088,392.413 437.088,395.413 430,394.5C 425.913,395.19 422.746,393.857 420.5,390.5C 420.709,389.914 421.043,389.414 421.5,389C 424.163,389.143 426.829,389.643 429.5,390.5C 431.481,390.563 433.148,389.896 434.5,388.5C 430.258,386.387 426.092,384.053 422,381.5C 420.984,376.528 422.817,373.194 427.5,371.5 Z"/></g>
<g><path style="opacity:1" fill="#e6f5fa" d="M 279.5,376.5 C 282.365,376.055 284.865,376.722 287,378.5C 287.667,381.5 287.667,384.5 287,387.5C 283.206,391.741 279.873,391.408 277,386.5C 275.861,382.579 276.695,379.246 279.5,376.5 Z"/></g>
<g><path style="opacity:1" fill="#def0f6" d="M 358.5,375.5 C 363.017,375.02 365.35,377.02 365.5,381.5C 362.102,381.82 358.768,381.487 355.5,380.5C 356.26,378.64 357.26,376.973 358.5,375.5 Z"/></g>
<g><path style="opacity:1" fill="#def0f6" d="M 405.5,375.5 C 410.017,375.02 412.35,377.02 412.5,381.5C 409.102,381.82 405.768,381.487 402.5,380.5C 403.26,378.64 404.26,376.973 405.5,375.5 Z"/></g>
<g><path style="opacity:1" fill="#e5f4fa" d="M 225.5,384.5 C 227.833,384.5 230.167,384.5 232.5,384.5C 232.519,389.984 230.019,391.65 225,389.5C 224.36,387.735 224.527,386.068 225.5,384.5 Z"/></g>
</svg>
