<svg width="63" height="71" viewBox="0 0 63 71" fill="black" xmlns="http://www.w3.org/2000/svg">
<g clip-path="url(#clip0_9_98)">
<path d="M58.8362 21.2464C58.8362 17.0441 55.7807 13.6335 52.0158 13.6335H11.0933C7.32847 13.6335 4.27293 17.0441 4.27293 21.2464V49.523C4.27293 51.5421 4.9915 53.4785 6.27058 54.9062C7.54966 56.3339 9.28445 57.136 11.0933 57.136H52.0158C53.8247 57.136 55.5595 56.3339 56.8386 54.9062C58.1177 53.4785 58.8362 51.5421 58.8362 49.523V21.2464ZM52.0158 17.9837C52.7911 17.9837 53.5346 18.3275 54.0827 18.9393C54.6309 19.5512 54.9389 20.3811 54.9389 21.2464V49.523C54.9389 51.324 53.6293 52.7857 52.0158 52.7857H11.0933C10.3181 52.7857 9.57462 52.442 9.02645 51.8301C8.47827 51.2182 8.17031 50.3883 8.17031 49.523V21.2464C8.17031 20.3811 8.47827 19.5512 9.02645 18.9393C9.57462 18.3275 10.3181 17.9837 11.0933 17.9837H52.0158ZM25.7085 26.6842C26.2253 26.6842 26.721 26.9134 27.0864 27.3213C27.4519 27.7292 27.6572 28.2825 27.6572 28.8594C27.6572 29.4362 27.4519 29.9895 27.0864 30.3974C26.721 30.8053 26.2253 31.0345 25.7085 31.0345H14.0164C13.4996 31.0345 13.0039 30.8053 12.6384 30.3974C12.273 29.9895 12.0677 29.4362 12.0677 28.8594C12.0677 28.2825 12.273 27.7292 12.6384 27.3213C13.0039 26.9134 13.4996 26.6842 14.0164 26.6842H25.7085ZM25.7085 39.735C26.2253 39.735 26.721 39.9641 27.0864 40.372C27.4519 40.78 27.6572 41.3332 27.6572 41.9101C27.6572 42.487 27.4519 43.0402 27.0864 43.4481C26.721 43.8561 26.2253 44.0852 25.7085 44.0852H14.0164C13.4996 44.0852 13.0039 43.8561 12.6384 43.4481C12.273 43.0402 12.0677 42.487 12.0677 41.9101C12.0677 41.3332 12.273 40.78 12.6384 40.372C13.0039 39.9641 13.4996 39.735 14.0164 39.735H25.7085ZM42.2295 34.1406C41.535 34.1406 40.8473 33.9879 40.2056 33.6912C39.5639 33.3945 38.9809 32.9597 38.4898 32.4115C37.9987 31.8633 37.6091 31.2126 37.3433 30.4964C37.0776 29.7801 36.9408 29.0125 36.9408 28.2373C36.9408 27.462 37.0776 26.6944 37.3433 25.9782C37.6091 25.262 37.9987 24.6112 38.4898 24.063C38.9809 23.5148 39.5639 23.08 40.2056 22.7833C40.8473 22.4867 41.535 22.334 42.2295 22.334C43.6322 22.334 44.9774 22.9559 45.9692 24.063C46.961 25.1701 47.5183 26.6716 47.5183 28.2373C47.5183 29.8029 46.961 31.3044 45.9692 32.4115C44.9774 33.5186 43.6322 34.1406 42.2295 34.1406ZM47.6975 37.09C48.5844 37.09 49.4349 37.4833 50.0621 38.1832C50.6892 38.8832 51.0415 39.8326 51.0415 40.8225C51.0414 42.4426 50.5561 44.0162 49.6628 45.2931C48.7695 46.57 47.5194 47.477 46.1113 47.8699L45.9047 47.9308C43.4884 48.6051 40.9668 48.6051 38.5543 47.9308L38.3438 47.8743C36.9357 47.4814 35.6856 46.5744 34.7923 45.2975C33.899 44.0206 33.4138 42.447 33.4136 40.8269C33.4131 40.3364 33.4992 39.8505 33.6671 39.3972C33.8349 38.9438 34.0811 38.5318 34.3917 38.1848C34.7022 37.8377 35.071 37.5624 35.477 37.3746C35.883 37.1867 36.3181 37.09 36.7576 37.09H47.6975Z" fill="black"/>
</g>
<defs>
<clipPath id="clip0_9_98">
<rect width="62.3581" height="69.604" fill="black" transform="translate(0.375549 0.582733)"/>
</clipPath>
</defs>
</svg>
