<svg width="63" height="70" viewBox="0 0 63 70" fill="none" xmlns="http://www.w3.org/2000/svg">
<g clip-path="url(#clip0_9_88)">
<path d="M10.6897 18.1837L20.4332 7.30811C20.6141 7.10612 20.8289 6.9459 21.0654 6.83659C21.3018 6.72729 21.5552 6.67104 21.8111 6.67107H41.298C42.3313 6.67236 43.322 7.13111 44.0526 7.94665C44.7833 8.7622 45.1943 9.86795 45.1954 11.0213V15.3716H49.0928C50.1261 15.3729 51.1167 15.8316 51.8474 16.6472C52.578 17.4627 52.989 18.5684 52.9902 19.7218V58.874C52.989 60.0274 52.578 61.1331 51.8474 61.9487C51.1167 62.7642 50.1261 63.223 49.0928 63.2243H21.8111C20.7778 63.223 19.7872 62.7642 19.0566 61.9487C18.3259 61.1331 17.9149 60.0274 17.9138 58.874V54.5238H14.0164C12.9831 54.5225 11.9924 54.0637 11.2618 53.2482C10.5311 52.4326 10.1202 51.3269 10.119 50.1735V19.7218C10.119 19.4362 10.1694 19.1533 10.2673 18.8894C10.3652 18.6255 10.5088 18.3857 10.6897 18.1837ZM21.8111 58.874H49.0928V19.7218H30.4129L21.8111 29.3233L21.8092 52.306C21.8094 52.3204 21.8111 52.3343 21.8111 52.3487C21.8111 52.3631 21.8094 52.3772 21.8092 52.3916L21.8087 58.874H21.8111ZM14.0164 50.1735H17.9138V28.4223C17.9137 28.1367 17.9641 27.8538 18.062 27.5899C18.16 27.326 18.3035 27.0862 18.4845 26.8842L28.2279 16.0086C28.4089 15.8066 28.6237 15.6464 28.8601 15.5371C29.0966 15.4278 29.35 15.3715 29.6059 15.3716H41.298V11.0213H22.6181L14.0164 20.6229V50.1735ZM27.6572 41.473C27.6572 42.0499 27.8625 42.6032 28.228 43.0111C28.5934 43.419 29.0891 43.6482 29.6059 43.6482H41.298C41.8149 43.6482 42.3105 43.419 42.676 43.0111C43.0414 42.6032 43.2467 42.0499 43.2467 41.473C43.2467 40.8962 43.0414 40.3429 42.676 39.935C42.3105 39.5271 41.8149 39.2979 41.298 39.2979H29.6059C29.0891 39.2979 28.5934 39.5271 28.228 39.935C27.8625 40.3429 27.6572 40.8962 27.6572 41.473ZM27.6572 50.1735C27.6572 50.7504 27.8625 51.3037 28.228 51.7116C28.5934 52.1195 29.0891 52.3487 29.6059 52.3487H41.298C41.8149 52.3487 42.3105 52.1195 42.676 51.7116C43.0414 51.3037 43.2467 50.7504 43.2467 50.1735C43.2467 49.5967 43.0414 49.0434 42.676 48.6355C42.3105 48.2276 41.8149 47.9984 41.298 47.9984H29.6059C29.0891 47.9984 28.5934 48.2276 28.228 48.6355C27.8625 49.0434 27.6572 49.5967 27.6572 50.1735Z" fill="#296870"/>
</g>
<defs>
<clipPath id="clip0_9_88">
<rect width="62.3581" height="69.604" fill="white" transform="translate(0.375549 0.145691)"/>
</clipPath>
</defs>
</svg>
