<svg width="63" height="70" viewBox="0 0 63 70" fill="none" xmlns="http://www.w3.org/2000/svg">
<path d="M10.6914 19.6169L23.7964 4.98919C24.1617 4.58136 24.655 4.35025 25.1726 4.35025H51.0415C52.1194 4.35025 52.9902 5.32226 52.9902 6.52537V63.0786C52.9902 64.2817 52.1194 65.2537 51.0415 65.2537H12.0677C10.9898 65.2537 10.119 64.2817 10.119 63.0786V21.1599C10.119 20.5821 10.326 20.0247 10.6914 19.6169ZM14.6132 22.1591H26.0739V9.36663L14.6132 22.1591ZM14.5035 60.3597H48.6056V9.24428H30.2149V23.9264C30.2149 24.6835 29.9454 25.4097 29.4657 25.945C28.9861 26.4804 28.3355 26.7812 27.6572 26.7812H14.5035V60.3597ZM29.6059 32.0831C29.6059 31.784 29.8251 31.5393 30.0931 31.5393H33.0161C33.284 31.5393 33.5033 31.784 33.5033 32.0831V39.4241H40.0801C40.348 39.4241 40.5673 39.6688 40.5673 39.9679V43.2306C40.5673 43.5297 40.348 43.7744 40.0801 43.7744H33.5033V51.1154C33.5033 51.4145 33.284 51.6592 33.0161 51.6592H30.0931C29.8251 51.6592 29.6059 51.4145 29.6059 51.1154V43.7744H23.0291C22.7611 43.7744 22.5419 43.5297 22.5419 43.2306V39.9679C22.5419 39.6688 22.7611 39.4241 23.0291 39.4241H29.6059V32.0831Z" fill="#296870"/>
</svg>
