<svg width="70" height="70" viewBox="0 0 70 70" fill="none" xmlns="http://www.w3.org/2000/svg">
<path d="M10.9375 28.9844V61.25C10.9375 61.8302 11.168 62.3866 11.5782 62.7968C11.9884 63.207 12.5448 63.4375 13.125 63.4375H26.25V44.8438C26.25 43.9735 26.5957 43.1389 27.2111 42.5236C27.8264 41.9082 28.661 41.5625 29.5312 41.5625H40.4688C41.339 41.5625 42.1736 41.9082 42.7889 42.5236C43.4043 43.1389 43.75 43.9735 43.75 44.8438V63.4375H56.875C57.4552 63.4375 58.0116 63.207 58.4218 62.7968C58.832 62.3866 59.0625 61.8302 59.0625 61.25V28.9844" stroke="black" stroke-width="4.375" stroke-linecap="round" stroke-linejoin="round"/>
<path d="M65.625 35L36.4889 7.10937C35.8053 6.38749 34.207 6.37929 33.5111 7.10937L4.375 35" stroke="black" stroke-width="4.375" stroke-linecap="round" stroke-linejoin="round"/>
<path d="M54.6875 24.4727V8.75H48.125V18.1836" stroke="black" stroke-width="4.375" stroke-linecap="round" stroke-linejoin="round"/>
</svg>
