<svg width="63" height="70" viewBox="0 0 63 70" fill="none" xmlns="http://www.w3.org/2000/svg">
<g clip-path="url(#clip0_9_114)">
<g clip-path="url(#clip1_9_114)">
<g clip-path="url(#clip2_9_114)">
<g clip-path="url(#clip3_9_114)">
<g clip-path="url(#clip4_9_114)">
<path d="M60.1354 65.2551V62.3549C60.1354 56.9707 58.2192 51.807 54.8083 47.9998C51.3974 44.1926 46.7713 42.0537 41.9476 42.0537V42.0537C37.1239 42.0537 32.4978 44.1926 29.0869 47.9998C25.676 51.807 23.7598 56.9707 23.7598 62.3549V65.2551" stroke="black" stroke-width="4.375" stroke-linecap="round"/>
<path d="M28.9564 47.8541C28.9564 44.0082 27.5876 40.3199 25.1513 37.6004C22.715 34.881 19.4106 33.3533 15.9651 33.3533V33.3533C14.2591 33.3533 12.5697 33.7283 10.9935 34.4571C9.41737 35.1858 7.98523 36.2539 6.77888 37.6004C5.57253 38.947 4.6156 40.5455 3.96273 42.3049C3.30985 44.0642 2.97382 45.9498 2.97382 47.8541V49.3042" stroke="black" stroke-width="4.375" stroke-linecap="round"/>
<path d="M41.9476 42.0537C39.1912 42.0537 36.5477 40.8315 34.5987 38.656C32.6496 36.4804 31.5546 33.5298 31.5546 30.4531C31.5546 27.3764 32.6496 24.4257 34.5987 22.2502C36.5477 20.0746 39.1912 18.8524 41.9476 18.8524C44.704 18.8524 47.3475 20.0746 49.2966 22.2502C51.2457 24.4257 52.3406 27.3764 52.3406 30.4531C52.3406 33.5298 51.2457 36.4804 49.2966 38.656C47.3475 40.8315 44.704 42.0537 41.9476 42.0537V42.0537Z" stroke="black" stroke-width="4.375" stroke-linecap="round" stroke-linejoin="round"/>
<path d="M15.9651 33.3533C13.8978 33.3533 11.9151 32.4366 10.4533 30.8049C8.99154 29.1733 8.17031 26.9603 8.17031 24.6528C8.17031 22.3452 8.99154 20.1322 10.4533 18.5006C11.9151 16.8689 13.8978 15.9523 15.9651 15.9523C18.0324 15.9523 20.015 16.8689 21.4768 18.5006C22.9386 20.1322 23.7598 22.3452 23.7598 24.6528C23.7598 26.9603 22.9386 29.1733 21.4768 30.8049C20.015 32.4366 18.0324 33.3533 15.9651 33.3533Z" stroke="black" stroke-width="4.375" stroke-linecap="round" stroke-linejoin="round"/>
</g>
</g>
</g>
</g>
</g>
<defs>
<clipPath id="clip0_9_114">
<rect width="62.3581" height="69.604" fill="white" transform="translate(0.375549 0.291372)"/>
</clipPath>
<clipPath id="clip1_9_114">
<rect width="62.3581" height="69.604" fill="white" transform="translate(0.375549 0.291372)"/>
</clipPath>
<clipPath id="clip2_9_114">
<rect width="62.3581" height="69.604" fill="white" transform="translate(0.375549 7.25177)"/>
</clipPath>
<clipPath id="clip3_9_114">
<rect width="62.3581" height="69.604" fill="white" transform="translate(0.375549 7.25177)"/>
</clipPath>
<clipPath id="clip4_9_114">
<rect width="62.3581" height="69.604" fill="white" transform="translate(0.375549 7.25177)"/>
</clipPath>
</defs>
</svg>
